<svg width="206" height="49" viewBox="0 0 206 49" fill="none" xmlns="http://www.w3.org/2000/svg">
<path d="M20.8 40.664C19.776 39.2987 18.4533 37.4 16.832 34.968C5.61067 33.8587 0 31.512 0 27.928C0 27.1173 0.405333 26.456 1.216 25.944C2.06933 25.432 3.34933 25.176 5.056 25.176C9.32267 25.176 13.568 27.8853 17.792 33.304C22.0587 33.7307 26.9013 33.944 32.32 33.944H33.024C38.4853 30.6587 43.5627 27.352 48.256 24.024C50.176 20.5253 51.84 17.6453 53.248 15.384C54.656 13.08 56.3627 10.6907 58.368 8.216C62.336 3.18133 66.5173 0.663998 70.912 0.663998C72.064 0.663998 72.64 1.176 72.64 2.2C72.64 4.67466 70.592 7.91733 66.496 11.928C62.4 15.9387 56.96 20.248 50.176 24.856C48.128 28.7813 46.592 31.64 45.568 33.432C51.5413 32.9627 55.8507 32.2373 58.496 31.256H58.688C58.8587 31.256 58.944 31.384 58.944 31.64C58.944 31.8533 58.7947 32.1733 58.496 32.6C55.296 33.5813 50.688 34.3493 44.672 34.904C42.368 38.872 40.128 41.9653 37.952 44.184C35.8187 46.36 33.664 47.448 31.488 47.448C27.9893 47.448 24.6827 45.5067 21.568 41.624C15.4667 44.696 10.0693 47.0427 5.376 48.664C4.736 48.8773 3.98933 48.984 3.136 48.984C2.32533 48.984 1.92 48.664 1.92 48.024C1.92 47.6827 2.09067 47.3627 2.432 47.064C2.77333 46.808 3.22133 46.68 3.776 46.68C7.18933 46.68 12.864 44.6747 20.8 40.664ZM33.024 35.544C29.7813 37.3787 26.5813 39.1067 23.424 40.728C26.2827 44.2693 28.8853 46.04 31.232 46.04C32.9813 46.04 34.7093 45.1013 36.416 43.224C38.1653 41.3467 40.0853 38.6373 42.176 35.096C39.5733 35.3093 36.5227 35.4587 33.024 35.544ZM69.12 2.2C66.176 2.2 63.2107 4.16266 60.224 8.088C57.7493 11.416 55.04 15.8107 52.096 21.272C57.472 17.304 61.7813 13.6987 65.024 10.456C68.2667 7.17067 69.888 4.632 69.888 2.84C69.888 2.41333 69.632 2.2 69.12 2.2ZM3.072 27.672C3.072 30.104 7.18933 31.8747 15.424 32.984C12.096 28.5467 8.74667 26.328 5.376 26.328C3.84 26.328 3.072 26.776 3.072 27.672ZM22.656 39.768C25.3013 38.36 27.84 36.952 30.272 35.544H30.016C26.304 35.544 22.72 35.416 19.264 35.16C20.8853 37.4213 22.016 38.9573 22.656 39.768ZM46.528 27.288C44.224 28.824 40.64 31.0427 35.776 33.944C39.0613 33.8587 41.472 33.752 43.008 33.624C43.8187 32.216 44.992 30.104 46.528 27.288ZM64.641 27.672C65.0677 27.672 65.3877 27.8 65.601 28.056C65.857 28.312 65.985 28.6747 65.985 29.144C65.985 29.6133 65.665 30.2107 65.025 30.936C64.385 31.6613 63.8303 32.024 63.361 32.024C62.8917 32.024 62.5503 31.896 62.337 31.64C62.1237 31.3413 62.017 31.0213 62.017 30.68C62.017 30.296 62.3583 29.6987 63.041 28.888C63.7237 28.0773 64.257 27.672 64.641 27.672ZM69.953 36.312C70.2943 36.0987 70.5503 35.992 70.721 35.992C70.9343 35.992 71.041 36.12 71.041 36.376V36.568C71.2117 36.568 70.0597 37.5067 67.585 39.384C65.153 41.2613 62.529 43.1387 59.713 45.016C56.9397 46.8933 55.1903 47.832 54.465 47.832C53.2277 47.832 52.609 47.32 52.609 46.296C52.609 45.0587 53.6757 42.7333 55.809 39.32C57.9423 35.864 59.4997 34.136 60.481 34.136C61.2063 34.136 61.569 34.4133 61.569 34.968C61.569 35.5227 60.5877 37.0373 58.625 39.512C56.6623 41.9867 55.681 43.7573 55.681 44.824C55.681 45.4213 55.8943 45.72 56.321 45.72C56.7903 45.72 57.921 45.1227 59.713 43.928C62.913 41.7947 65.857 39.64 68.545 37.464L69.953 36.312ZM74.4635 37.848L76.5115 34.712C76.3835 34.6693 76.2555 34.648 76.1275 34.648C74.3355 34.648 71.9888 36.0133 69.0875 38.744C66.1862 41.4747 64.7355 43.3947 64.7355 44.504C64.7355 44.8027 64.9062 44.952 65.2475 44.952C66.3142 44.952 67.9355 44.056 70.1115 42.264C72.2875 40.4293 73.7382 38.9573 74.4635 37.848ZM88.7355 36.632C79.8608 43.8 74.4848 47.384 72.6075 47.384C71.8822 47.384 71.5195 46.9573 71.5195 46.104C71.5195 45.2507 71.8395 43.8213 72.4795 41.816C72.4795 41.7733 72.4368 41.752 72.3515 41.752C67.4448 45.8053 64.1808 47.832 62.5595 47.832C61.4502 47.832 60.8955 47.4267 60.8955 46.616C60.8955 44.824 62.8155 42.2 66.6555 38.744C70.5382 35.288 73.6315 33.56 75.9355 33.56C76.2342 33.56 76.5542 33.7733 76.8955 34.2C77.8768 32.7493 83.3808 24.8773 93.4075 10.584C94.4742 9.26133 95.3275 8.6 95.9675 8.6C96.6502 8.6 96.9915 8.81333 96.9915 9.24C96.9915 10.3067 93.3222 15.3413 85.9835 24.344C83.2528 27.7573 80.7355 31.32 78.4315 35.032C76.1702 38.7013 75.0395 41.496 75.0395 43.416C75.0395 44.2267 75.2742 44.632 75.7435 44.632C76.2982 44.632 77.2795 44.1413 78.6875 43.16C81.5888 41.0693 84.1275 39.1493 86.3035 37.4L87.5195 36.376C87.8182 36.1627 88.0955 36.056 88.3515 36.056C88.6075 36.056 88.7355 36.2053 88.7355 36.504V36.632ZM92.151 37.848L94.199 34.712C94.071 34.6693 93.943 34.648 93.815 34.648C92.023 34.648 89.6763 36.0133 86.775 38.744C83.8737 41.4747 82.423 43.3947 82.423 44.504C82.423 44.8027 82.5937 44.952 82.935 44.952C84.0017 44.952 85.623 44.056 87.799 42.264C89.975 40.4293 91.4257 38.9573 92.151 37.848ZM106.423 36.632C97.5483 43.8 92.1723 47.384 90.295 47.384C89.5697 47.384 89.207 46.9573 89.207 46.104C89.207 45.2507 89.527 43.8213 90.167 41.816C90.167 41.7733 90.1243 41.752 90.039 41.752C85.1323 45.8053 81.8683 47.832 80.247 47.832C79.1377 47.832 78.583 47.4267 78.583 46.616C78.583 44.824 80.503 42.2 84.343 38.744C88.2257 35.288 91.319 33.56 93.623 33.56C93.9217 33.56 94.2417 33.7733 94.583 34.2C95.5643 32.7493 101.068 24.8773 111.095 10.584C112.162 9.26133 113.015 8.6 113.655 8.6C114.338 8.6 114.679 8.81333 114.679 9.24C114.679 10.3067 111.01 15.3413 103.671 24.344C100.94 27.7573 98.423 31.32 96.119 35.032C93.8577 38.7013 92.727 41.496 92.727 43.416C92.727 44.2267 92.9617 44.632 93.431 44.632C93.9857 44.632 94.967 44.1413 96.375 43.16C99.2763 41.0693 101.815 39.1493 103.991 37.4L105.207 36.376C105.506 36.1627 105.783 36.056 106.039 36.056C106.295 36.056 106.423 36.2053 106.423 36.504V36.632ZM125.967 36.312C126.265 36.0987 126.543 35.992 126.799 35.992C127.055 35.992 127.183 36.12 127.183 36.376V36.568C123.812 39.384 120.505 41.9013 117.263 44.12C114.02 46.5947 111.759 47.832 110.479 47.832C109.241 47.832 108.623 47.32 108.623 46.296C108.623 45.1867 109.433 43.3093 111.055 40.664C112.676 38.0187 113.487 36.6107 113.487 36.44C113.487 36.2267 113.401 36.12 113.231 36.12C112.676 36.12 110.969 37.3573 108.111 39.832C105.295 42.264 102.82 44.5253 100.687 46.616C99.8758 47.3413 99.2998 47.704 98.9585 47.704C98.6598 47.704 98.5105 47.4693 98.5105 47C98.5105 46.5307 98.7878 45.9333 99.3425 45.208L121.679 11.16C122.148 10.4347 122.767 10.072 123.535 10.072C124.345 10.072 124.751 10.328 124.751 10.84C124.751 11.1387 124.623 11.4587 124.367 11.8C124.153 12.1413 122.724 14.1893 120.079 17.944C117.433 21.656 115.897 23.8533 115.471 24.536C115.087 25.2187 113.231 28.0347 109.903 32.984C106.617 37.9333 104.868 40.5573 104.655 40.856C104.484 41.112 104.399 41.3253 104.399 41.496C104.399 41.6667 104.463 41.752 104.591 41.752C104.761 41.752 104.868 41.7307 104.911 41.688C106.276 40.3227 108.132 38.744 110.479 36.952C112.868 35.1173 114.511 34.2 115.407 34.2C115.748 34.2 116.047 34.328 116.303 34.584C116.559 34.7973 116.687 35.1813 116.687 35.736C116.687 36.248 115.855 37.6987 114.191 40.088C112.527 42.4347 111.695 43.9707 111.695 44.696C111.695 45.3787 111.908 45.72 112.335 45.72C112.804 45.72 113.935 45.1227 115.727 43.928C118.927 41.7947 121.871 39.64 124.559 37.464L125.967 36.312ZM132.51 39.32C132.254 39.32 132.126 39.2347 132.126 39.064C132.126 38.8507 132.275 38.616 132.574 38.36C133.982 37.208 134.686 36.1627 134.686 35.224C134.686 34.6267 134.153 34.2853 133.086 34.2C131.166 34.2427 128.862 35.6293 126.174 38.36C123.529 41.0907 122.206 43.1387 122.206 44.504C122.206 44.9733 122.462 45.208 122.974 45.208C123.529 45.208 124.254 44.8453 125.15 44.12C125.961 43.608 127.475 42.328 129.694 40.28C130.206 39.768 130.697 39.512 131.166 39.512C131.763 39.512 132.062 39.7893 132.062 40.344C132.062 40.5573 131.998 40.728 131.87 40.856C131.742 40.984 131.507 41.2613 131.166 41.688C130.825 42.072 130.526 42.4347 130.27 42.776C129.502 43.8853 129.118 44.6107 129.118 44.952C129.118 45.8053 129.459 46.232 130.142 46.232C131.038 46.232 132.723 45.4213 135.198 43.8C137.673 42.136 139.934 40.472 141.982 38.808L145.054 36.376C145.353 36.1627 145.63 36.056 145.886 36.056C146.142 36.056 146.27 36.2053 146.27 36.504V36.632C142.985 39.4053 139.507 42.008 135.838 44.44C132.211 46.872 129.822 48.088 128.67 48.088C127.305 48.088 126.622 47.3627 126.622 45.912C126.622 45.5707 126.686 45.2507 126.814 44.952C126.942 44.6533 127.006 44.44 127.006 44.312C127.006 44.184 126.963 44.0987 126.878 44.056C126.75 44.056 125.918 44.632 124.382 45.784C122.889 46.936 121.566 47.512 120.414 47.512C119.305 47.512 118.75 46.9147 118.75 45.72C118.75 44.5253 119.539 42.9253 121.118 40.92C122.739 38.872 124.894 37.016 127.582 35.352C130.27 33.688 132.894 32.856 135.454 32.856C136.051 32.856 136.542 33.0053 136.926 33.304C137.353 33.6027 137.566 34.072 137.566 34.712C137.566 35.3093 136.947 36.2267 135.71 37.464C134.473 38.7013 133.406 39.32 132.51 39.32ZM171.027 36.568C162.024 44.0773 156.456 47.832 154.323 47.832C153.086 47.832 152.467 47.32 152.467 46.296C152.467 45.272 152.915 44.056 153.811 42.648C154.75 41.24 155.667 40.0027 156.563 38.936C157.502 37.8267 157.971 37.1653 157.971 36.952C157.971 36.7387 157.907 36.632 157.779 36.632C153.811 39.2773 151.443 40.8987 150.675 41.496C149.95 42.0933 148.734 43.0747 147.027 44.44C145.363 45.8053 144.275 46.6587 143.763 47C143.251 47.3413 142.696 47.512 142.099 47.512C141.502 47.512 141.203 47.256 141.203 46.744C141.203 46.1467 142.398 44.2693 144.787 41.112C147.091 37.9547 148.243 36.184 148.243 35.8C148.243 35.7147 148.158 35.672 147.987 35.672C147.859 35.672 146.024 36.9733 142.483 39.576L142.227 38.616C145.256 36.184 147.304 34.6267 148.371 33.944C149.438 33.2613 150.291 32.92 150.931 32.92C151.614 32.92 151.955 33.24 151.955 33.88C151.955 34.3067 150.739 36.056 148.307 39.128C145.918 42.1573 144.723 43.8 144.723 44.056C144.723 44.2693 144.787 44.376 144.915 44.376C145.086 44.376 147.518 42.6693 152.211 39.256C156.947 35.8 159.827 34.072 160.851 34.072C161.15 34.072 161.427 34.2 161.683 34.456C161.982 34.6693 162.131 34.8827 162.131 35.096C162.131 35.608 161 37.3147 158.739 40.216C156.478 43.0747 155.347 44.696 155.347 45.08C155.347 45.464 155.603 45.656 156.115 45.656C156.67 45.656 157.822 45.08 159.571 43.928C162.771 41.8373 165.715 39.6827 168.403 37.464L169.811 36.312C170.11 36.0987 170.387 35.992 170.643 35.992C170.899 35.992 171.027 36.12 171.027 36.376V36.568ZM204.227 19.864L195.075 19.416C191.32 19.416 187.587 19.5653 183.875 19.864L184.195 21.144C184.195 21.6133 182.808 23.4053 180.035 26.52C177.261 29.592 174.488 32.9627 171.715 36.632C168.941 40.2587 167.555 42.9467 167.555 44.696C167.555 45.3787 167.789 45.72 168.259 45.72C168.771 45.72 169.901 45.1227 171.651 43.928C174.893 41.7947 177.859 39.64 180.547 37.464L181.955 36.312C182.253 36.0987 182.509 35.992 182.723 35.992C182.936 35.992 183.043 36.12 183.043 36.376V36.568C183.213 36.568 182.061 37.5067 179.587 39.384C177.155 41.2613 174.531 43.1387 171.715 45.016C168.941 46.8933 167.192 47.832 166.467 47.832C165.229 47.832 164.611 47.2773 164.611 46.168C164.611 44.5467 165.507 42.3067 167.299 39.448C169.133 36.5893 171.117 33.9013 173.251 31.384C175.427 28.824 177.475 26.4133 179.395 24.152C181.357 21.8907 182.424 20.504 182.595 19.992C177.901 20.4187 174.296 20.9307 171.779 21.528L170.499 21.784C170.157 21.8267 169.987 22.1467 169.987 22.744C169.987 23 169.688 23.128 169.091 23.128C168.493 23.128 167.747 23 166.851 22.744C165.997 22.4453 165.571 22.04 165.571 21.528C165.571 21.016 165.997 20.6747 166.851 20.504C173.165 19.3947 177.645 18.7333 180.291 18.52C182.936 18.264 184.685 18.1147 185.539 18.072C186.435 17.9867 187.8 17.9227 189.635 17.88C191.512 17.8373 192.771 17.816 193.411 17.816C195.331 17.7307 197.571 17.688 200.131 17.688C202.733 17.688 204.312 17.7947 204.867 18.008C205.421 18.2213 205.699 18.6267 205.699 19.224C205.699 19.6507 205.208 19.864 204.227 19.864Z" fill="white"/>
</svg>
