<svg width="512" height="135" viewBox="0 0 512 135" fill="none" xmlns="http://www.w3.org/2000/svg">
<g clip-path="url(#clip0_12_17)">
<path d="M39.6886 13.8097C34.4885 7.63994 30.0106 1.37375 29.0958 0.0723024C28.9995 -0.0241008 28.855 -0.0241008 28.7587 0.0723024C27.8438 1.37375 23.366 7.63994 18.1658 13.8097C-26.4687 70.7355 25.1957 109.152 25.1957 109.152L25.629 109.442C26.0141 115.37 26.9771 123.902 26.9771 123.902H28.9031H30.8291C30.8291 123.902 31.7921 115.418 32.1773 109.442L32.6106 109.104C32.6588 109.152 84.3233 70.7355 39.6886 13.8097ZM28.9031 108.285C28.9031 108.285 26.592 106.308 25.966 105.297V105.2L28.7587 43.2127C28.7587 43.0199 29.0476 43.0199 29.0476 43.2127L31.8402 105.2V105.297C31.2143 106.308 28.9031 108.285 28.9031 108.285Z" fill="#01EC64"/>
<path d="M125.59 95.6355L104.061 43.0529L104.013 42.9077H87.2623V46.4422H89.9654C90.786 46.4422 91.5583 46.7812 92.1378 47.3622C92.7168 47.9432 93.0066 48.7181 93.0066 49.5411L92.524 102.463C92.524 104.109 91.1726 105.464 89.5311 105.513L86.7797 105.561V109.047H103.096V105.561L101.406 105.513C99.7648 105.464 98.413 104.109 98.413 102.463V52.5914L121.873 109.047C122.211 109.87 122.983 110.403 123.852 110.403C124.721 110.403 125.494 109.87 125.831 109.047L148.761 53.8501L149.099 102.463C149.099 104.157 147.747 105.513 146.057 105.561H144.319V109.047H163.435V105.561H160.828C159.187 105.561 157.835 104.157 157.787 102.511L157.642 49.5893C157.642 47.8948 158.994 46.5391 160.635 46.4907L163.435 46.4422V42.9077H147.119L125.59 95.6355ZM275.703 104.64C275.171 104.107 274.88 103.379 274.88 102.506V76.5088C274.88 71.5619 273.429 67.6814 270.525 64.917C267.669 62.1521 263.701 60.7458 258.764 60.7458C251.843 60.7458 246.375 63.5589 242.551 69.0882C242.503 69.1851 242.358 69.2338 242.213 69.2338C242.067 69.2338 241.971 69.1364 241.971 68.9913L240.18 62.0552H237.179L229.484 66.4689V68.8939H231.468C232.388 68.8939 233.162 69.1364 233.695 69.6219C234.227 70.1069 234.517 70.8344 234.517 71.8526V102.457C234.517 103.33 234.227 104.058 233.695 104.592C233.162 105.125 232.436 105.416 231.565 105.416H229.629V108.957H247.342V105.416H245.407C244.535 105.416 243.809 105.125 243.277 104.592C242.745 104.058 242.454 103.33 242.454 102.457V82.1837C242.454 79.6131 243.035 77.0425 244.1 74.5201C245.213 72.0469 246.858 69.9613 249.036 68.3607C251.214 66.7601 253.828 65.9839 256.828 65.9839C260.216 65.9839 262.781 67.0508 264.378 69.1851C265.975 71.3194 266.798 74.0838 266.798 77.3819V102.409C266.798 103.282 266.508 104.009 265.975 104.543C265.443 105.077 264.717 105.367 263.846 105.367H261.91V108.908H279.623V105.367H277.688C276.962 105.465 276.284 105.174 275.703 104.64ZM437.536 46.8667C432.64 44.2595 427.168 42.9077 421.263 42.9077H398.222V46.4322H400.478C401.342 46.4322 402.11 46.7702 402.878 47.5427C403.599 48.2668 403.982 49.0879 403.982 49.9566V101.908C403.982 102.777 403.599 103.598 402.878 104.322C402.159 105.046 401.342 105.432 400.478 105.432H398.222V108.957H421.263C427.168 108.957 432.64 107.605 437.536 104.998C442.432 102.39 446.417 98.5277 449.297 93.6034C452.177 88.6787 453.665 82.7401 453.665 75.9804C453.665 69.2212 452.177 63.3308 449.297 58.3579C446.369 53.3367 442.432 49.5223 437.536 46.8667ZM444.401 75.884C444.401 82.0641 443.297 87.2781 441.136 91.4788C438.976 95.6794 436.096 98.8174 432.544 100.846C428.992 102.873 425.055 103.887 420.831 103.887H416.175C415.311 103.887 414.543 103.549 413.775 102.777C413.055 102.052 412.671 101.232 412.671 100.363V51.3572C412.671 50.4879 413.007 49.7156 413.775 48.9428C414.495 48.2186 415.311 47.8324 416.175 47.8324H420.831C425.055 47.8324 428.992 48.8463 432.544 50.8741C436.096 52.9018 438.976 56.0404 441.136 60.2405C443.297 64.4893 444.401 69.752 444.401 75.884ZM508.129 79.4087C505.998 76.9461 501.885 74.8701 497.05 73.7593C503.727 70.428 507.16 65.7447 507.16 59.7097C507.16 56.4265 506.292 53.4813 504.547 50.9705C502.806 48.4602 500.338 46.4322 497.194 45.032C494.046 43.6319 490.368 42.9077 486.207 42.9077H460.126V46.4322H462.207C463.077 46.4322 463.852 46.7702 464.626 47.5427C465.352 48.2668 465.739 49.0879 465.739 49.9566V101.908C465.739 102.777 465.352 103.598 464.626 104.322C463.9 105.046 463.077 105.432 462.207 105.432H459.932V108.957H488.242C492.547 108.957 496.563 108.233 500.193 106.784C503.823 105.336 506.726 103.211 508.808 100.411C510.935 97.6107 512 94.1824 512 90.2234C511.952 85.9745 510.693 82.3534 508.129 79.4087ZM475.659 102.825C474.933 102.101 474.546 101.28 474.546 100.411V77.0907H488.001C492.74 77.0907 496.37 78.2979 498.887 80.7118C501.403 83.1262 502.662 86.2643 502.662 90.1269C502.662 92.4444 502.078 94.7137 501.018 96.7897C499.904 98.9143 498.255 100.604 496.033 101.908C493.853 103.211 491.144 103.887 488.001 103.887H478.078C477.208 103.887 476.433 103.549 475.659 102.825ZM474.595 72.1177V51.4054C474.595 50.5361 474.933 49.7638 475.707 48.991C476.433 48.2668 477.256 47.8807 478.127 47.8807H484.515C489.109 47.8807 492.499 49.0397 494.63 51.2603C496.756 53.5295 497.821 56.4265 497.821 59.9995C497.821 63.6688 496.804 66.614 494.822 68.8346C492.836 71.0074 489.837 72.1177 485.87 72.1177H474.595ZM208.271 63.8255C204.573 61.8045 200.443 60.7458 195.977 60.7458C191.629 60.7458 187.554 61.7038 183.973 63.6643L183.684 63.8255C179.986 65.846 177.057 68.7811 174.896 72.4861C172.735 76.1911 171.631 80.5219 171.631 85.3333C171.631 90.1448 172.735 94.4756 174.896 98.1806C177.057 101.886 179.986 104.821 183.684 106.842C187.382 108.862 191.512 109.921 195.977 109.921C200.326 109.921 204.401 108.963 207.981 107.003L208.271 106.842C211.968 104.821 214.898 101.886 217.059 98.1806C219.219 94.4756 220.324 90.1448 220.324 85.3333C220.324 80.5219 219.219 76.1911 217.059 72.4861C214.898 68.7811 211.968 65.846 208.271 63.8255ZM211.824 85.3333C211.824 91.2517 210.384 96.0632 207.502 99.5276C204.669 102.992 200.78 104.772 195.977 104.772C191.261 104.772 187.425 103.055 184.605 99.7116L184.453 99.5276C181.571 96.0632 180.13 91.2517 180.13 85.3333C180.13 79.5226 181.519 74.7788 184.297 71.3294L184.453 71.1391C187.285 67.6746 191.176 65.8942 195.977 65.8942C200.78 65.8942 204.669 67.6746 207.502 71.1391C210.384 74.6035 211.824 79.415 211.824 85.3333ZM378.455 63.8255C374.757 61.8045 370.628 60.7458 366.162 60.7458C361.814 60.7458 357.738 61.7038 354.158 63.6643L353.869 63.8255C350.171 65.846 347.242 68.7811 345.081 72.4861C342.92 76.1911 341.815 80.5219 341.815 85.3333C341.815 90.1448 342.92 94.4756 345.081 98.1806C347.242 101.886 350.171 104.821 353.869 106.842C357.566 108.862 361.696 109.921 366.162 109.921C370.51 109.921 374.586 108.963 378.166 107.003L378.455 106.842C382.153 104.821 385.082 101.886 387.243 98.1806C389.404 94.4756 390.508 90.1448 390.508 85.3333C390.508 80.5219 389.404 76.1911 387.243 72.4861C385.082 68.7811 382.105 65.846 378.455 63.8255ZM382.009 85.3333C382.009 91.2517 380.568 96.0632 377.687 99.5276C374.853 102.992 370.964 104.772 366.162 104.772C361.445 104.772 357.609 103.055 354.79 99.7116L354.637 99.5276C351.756 96.0632 350.315 91.2517 350.315 85.3333C350.315 79.4752 351.704 74.7771 354.481 71.3293L354.637 71.1391C357.47 67.6746 361.36 65.8942 366.162 65.8942C370.964 65.8942 374.853 67.6746 377.687 71.1391C380.52 74.6035 382.009 79.415 382.009 85.3333ZM309.823 60.7458C305.953 60.7458 302.423 61.5673 299.231 63.2108C296.039 64.8543 293.524 67.0783 291.735 69.9299C289.946 72.7334 289.027 75.8758 289.027 79.211C289.027 82.2078 289.704 84.9631 291.106 87.4286C292.46 89.7972 294.298 91.7786 296.62 93.4221L289.704 102.8C288.833 103.96 288.737 105.507 289.365 106.764C290.042 108.069 291.3 108.842 292.751 108.842H294.734C292.88 110.093 291.381 111.566 290.323 113.303L290.187 113.531C288.93 115.609 288.301 117.785 288.301 120.008C288.301 124.091 290.074 127.475 293.573 130.021L293.766 130.159C297.345 132.721 302.375 134.026 308.71 134.026C313.111 134.026 317.319 133.301 321.139 131.899C324.898 130.538 327.971 128.537 330.272 125.943L330.473 125.712C332.843 123.005 334.052 119.718 334.052 115.948C334.052 111.984 332.601 109.18 329.216 106.474C326.314 104.202 321.768 102.993 316.109 102.993H296.765C296.736 102.993 296.707 102.976 296.688 102.962L296.668 102.945L296.659 102.925C296.648 102.894 296.633 102.835 296.668 102.8L301.698 96.0328C303.052 96.661 304.309 97.0476 305.422 97.2892C306.582 97.5312 307.888 97.6276 309.339 97.6276C313.401 97.6276 317.077 96.8061 320.269 95.1626C323.461 93.5191 326.024 91.2956 327.862 88.4434C329.699 85.6399 330.618 82.498 330.618 79.1628C330.618 75.5856 328.877 69.0597 324.137 65.7245C324.137 65.6956 324.155 65.684 324.169 65.6794L324.186 65.6763L334.584 66.8362V62.0508H317.947C315.336 61.2293 312.628 60.7458 309.823 60.7458ZM315.626 91.0053C313.788 91.972 311.805 92.5037 309.823 92.5037C306.582 92.5037 303.729 91.3438 301.311 89.0721C298.893 86.7999 297.684 83.4647 297.684 79.211C297.684 74.9574 298.893 71.6217 301.311 69.35C303.729 67.0783 306.582 65.9178 309.823 65.9178C311.769 65.9178 313.627 66.3619 315.396 67.2921L315.626 67.4162C317.464 68.3833 318.963 69.8817 320.172 71.8637C321.333 73.8456 321.961 76.3107 321.961 79.211C321.961 82.1596 321.381 84.6246 320.172 86.5584C319.011 88.5403 317.464 90.0387 315.626 91.0053ZM302.52 108.794H315.626C319.253 108.794 321.575 109.519 323.122 111.066C324.67 112.613 325.444 114.691 325.444 117.108C325.444 120.637 324.041 123.537 321.236 125.712C318.431 127.888 314.659 128.999 310.016 128.999C305.953 128.999 302.568 128.081 300.101 126.341C297.635 124.601 296.378 121.942 296.378 118.558C296.378 116.431 296.958 114.449 298.119 112.709C299.279 110.969 300.682 109.712 302.52 108.794Z" fill="white"/>
</g>
<defs>
<clipPath id="clip0_12_17">
<rect width="512" height="135" fill="white"/>
</clipPath>
</defs>
</svg>
